{
  "accessors": [
    {
      "bufferView": 0,
      "componentType": 5125,
      "count": 3864,
      "type": "SCALAR"
    },
    {
      "bufferView": 1,
      "componentType": 5126,
      "count": 1235,
      "max": [
        0.575000047683716,
        1.04463255405426,
        0.846676111221313
      ],
      "min": [
        -0.575000047683716,
        -1.00000011920929,
        -0.650000035762787
      ],
      "type": "VEC3"
    },
    {
      "bufferView": 2,
      "componentType": 5126,
      "count": 1235,
      "type": "VEC3"
    },
    {
      "bufferView": 3,
      "componentType": 5126,
      "count": 1235,
      "type": "VEC2"
    }
  ],
  "asset": {
    "generator": "Substance Painter 6.2.2",
    "version": "2.0"
  },
  "bufferViews": [
    {
      "buffer": 0,
      "byteLength": 15456,
      "target": 34963
    },
    {
      "buffer": 0,
      "byteLength": 14820,
      "byteOffset": 15456,
      "target": 34962
    },
    {
      "buffer": 0,
      "byteLength": 14820,
      "byteOffset": 30276,
      "target": 34962
    },
    {
      "buffer": 0,
      "byteLength": 9880,
      "byteOffset": 45096,
      "target": 34962
    }
  ],
  "buffers": [
    {
      "byteLength": 54976,
      "uri": "horno.bin"
    }
  ],
  "images": [
    {
      "uri": "DefaultMaterial_baseColor.png"
    },
    {
      "uri": "DefaultMaterial_occlusionRoughnessMetallic.png"
    },
    {
      "uri": "DefaultMaterial_normal.png"
    }
  ],
  "materials": [
    {
      "alphaMode": "OPAQUE",
      "name": "DefaultMaterial",
      "normalTexture": {
        "index": 2
      },
      "occlusionTexture": {
        "index": 1
      },
      "pbrMetallicRoughness": {
        "baseColorTexture": {
          "index": 0
        },
        "metallicRoughnessTexture": {
          "index": 1
        }
      }
    }
  ],
  "meshes": [
    {
      "name": "Cube.001",
      "primitives": [
        {
          "attributes": {
            "NORMAL": 2,
            "POSITION": 1,
            "TEXCOORD_0": 3
          },
          "indices": 0,
          "material": 0,
          "mode": 4
        }
      ]
    }
  ],
  "nodes": [
    {
      "children": [
        1
      ],
      "name": "Horno"
    },
    {
      "mesh": 0,
      "name": "Cube.001"
    }
  ],
  "samplers": [
    {
      "magFilter": 9729,
      "minFilter": 9985,
      "wrapS": 10497,
      "wrapT": 10497
    }
  ],
  "scene": 0,
  "scenes": [
    {
      "name": "Scene",
      "nodes": [
        0
      ]
    }
  ],
  "textures": [
    {
      "sampler": 0,
      "source": 0
    },
    {
      "sampler": 0,
      "source": 1
    },
    {
      "sampler": 0,
      "source": 2
    }
  ]
}