{
    "asset" : {
        "generator" : "Khronos glTF Blender I/O v1.4.40",
        "version" : "2.0"
    },
    "scene" : 0,
    "scenes" : [
        {
            "name" : "Scene",
            "nodes" : [
                0,
                1
            ]
        }
    ],
    "nodes" : [
        {
            "mesh" : 0,
            "name" : "Joystick",
            "scale" : [
                1.9611425399780273,
                0.8415341377258301,
                1.9611425399780273
            ],
            "translation" : [
                0,
                1.3368943929672241,
                0
            ]
        },
        {
            "mesh" : 1,
            "name" : "Banco"
        }
    ],
    "materials" : [
        {
            "doubleSided" : true,
            "emissiveFactor" : [
                1,
                1,
                1
            ],
            "emissiveTexture" : {
                "index" : 0,
                "texCoord" : 0
            },
            "name" : "Base.002",
            "pbrMetallicRoughness" : {}
        },
        {
            "doubleSided" : true,
            "emissiveFactor" : [
                1,
                1,
                1
            ],
            "emissiveTexture" : {
                "index" : 1,
                "texCoord" : 0
            },
            "name" : "Red",
            "pbrMetallicRoughness" : {}
        },
        {
            "doubleSided" : true,
            "emissiveFactor" : [
                1,
                1,
                1
            ],
            "emissiveTexture" : {
                "index" : 2,
                "texCoord" : 0
            },
            "name" : "Black",
            "pbrMetallicRoughness" : {}
        },
        {
            "doubleSided" : true,
            "emissiveFactor" : [
                1,
                1,
                1
            ],
            "emissiveTexture" : {
                "index" : 3,
                "texCoord" : 0
            },
            "name" : "Tope",
            "pbrMetallicRoughness" : {}
        },
        {
            "doubleSided" : true,
            "emissiveFactor" : [
                1,
                1,
                1
            ],
            "emissiveTexture" : {
                "index" : 4,
                "texCoord" : 0
            },
            "name" : "Asiento",
            "pbrMetallicRoughness" : {}
        },
        {
            "doubleSided" : true,
            "emissiveFactor" : [
                1,
                1,
                1
            ],
            "emissiveTexture" : {
                "index" : 5,
                "texCoord" : 0
            },
            "name" : "Base.001",
            "pbrMetallicRoughness" : {}
        },
        {
            "doubleSided" : true,
            "emissiveFactor" : [
                1,
                1,
                1
            ],
            "emissiveTexture" : {
                "index" : 6,
                "texCoord" : 0
            },
            "name" : "Bas",
            "pbrMetallicRoughness" : {}
        }
    ],
    "meshes" : [
        {
            "name" : "Cube.002",
            "primitives" : [
                {
                    "attributes" : {
                        "POSITION" : 0,
                        "NORMAL" : 1,
                        "TEXCOORD_0" : 2
                    },
                    "indices" : 3,
                    "material" : 0
                },
                {
                    "attributes" : {
                        "POSITION" : 4,
                        "NORMAL" : 5,
                        "TEXCOORD_0" : 6
                    },
                    "indices" : 7,
                    "material" : 1
                },
                {
                    "attributes" : {
                        "POSITION" : 8,
                        "NORMAL" : 9,
                        "TEXCOORD_0" : 10
                    },
                    "indices" : 11,
                    "material" : 2
                },
                {
                    "attributes" : {
                        "POSITION" : 12,
                        "NORMAL" : 13,
                        "TEXCOORD_0" : 14
                    },
                    "indices" : 15,
                    "material" : 3
                }
            ]
        },
        {
            "name" : "Cube",
            "primitives" : [
                {
                    "attributes" : {
                        "POSITION" : 16,
                        "NORMAL" : 17,
                        "TEXCOORD_0" : 18
                    },
                    "indices" : 19,
                    "material" : 4
                },
                {
                    "attributes" : {
                        "POSITION" : 20,
                        "NORMAL" : 21,
                        "TEXCOORD_0" : 22
                    },
                    "indices" : 23,
                    "material" : 5
                },
                {
                    "attributes" : {
                        "POSITION" : 24,
                        "NORMAL" : 25,
                        "TEXCOORD_0" : 26
                    },
                    "indices" : 27,
                    "material" : 6
                }
            ]
        }
    ],
    "textures" : [
        {
            "sampler" : 0,
            "source" : 0
        },
        {
            "sampler" : 0,
            "source" : 0
        },
        {
            "sampler" : 0,
            "source" : 0
        },
        {
            "sampler" : 0,
            "source" : 0
        },
        {
            "sampler" : 0,
            "source" : 1
        },
        {
            "sampler" : 0,
            "source" : 1
        },
        {
            "sampler" : 0,
            "source" : 1
        }
    ],
    "images" : [
        {
            "mimeType" : "image/png",
            "name" : "joystick",
            "uri" : "texture/joystick.png"
        },
        {
            "mimeType" : "image/png",
            "name" : "Banco",
            "uri" : "texture/Banco.png"
        }
    ],
    "accessors" : [
        {
            "bufferView" : 0,
            "componentType" : 5126,
            "count" : 289,
            "max" : [
                0.3870089650154114,
                0.3316924273967743,
                0.3870089650154114
            ],
            "min" : [
                -0.3870089650154114,
                -0.3316795825958252,
                -0.3870089650154114
            ],
            "type" : "VEC3"
        },
        {
            "bufferView" : 1,
            "componentType" : 5126,
            "count" : 289,
            "type" : "VEC3"
        },
        {
            "bufferView" : 2,
            "componentType" : 5126,
            "count" : 289,
            "type" : "VEC2"
        },
        {
            "bufferView" : 3,
            "componentType" : 5123,
            "count" : 1140,
            "type" : "SCALAR"
        },
        {
            "bufferView" : 4,
            "componentType" : 5126,
            "count" : 866,
            "max" : [
                0.24515575170516968,
                1.4908907413482666,
                0.27298852801322937
            ],
            "min" : [
                -0.24527223408222198,
                0.34486889839172363,
                -0.14977514743804932
            ],
            "type" : "VEC3"
        },
        {
            "bufferView" : 5,
            "componentType" : 5126,
            "count" : 866,
            "type" : "VEC3"
        },
        {
            "bufferView" : 6,
            "componentType" : 5126,
            "count" : 866,
            "type" : "VEC2"
        },
        {
            "bufferView" : 7,
            "componentType" : 5123,
            "count" : 3732,
            "type" : "SCALAR"
        },
        {
            "bufferView" : 8,
            "componentType" : 5126,
            "count" : 560,
            "max" : [
                0.2781236171722412,
                1.204180121421814,
                0.3059563934803009
            ],
            "min" : [
                -0.2782400846481323,
                0.3240755796432495,
                -0.14094124734401703
            ],
            "type" : "VEC3"
        },
        {
            "bufferView" : 9,
            "componentType" : 5126,
            "count" : 560,
            "type" : "VEC3"
        },
        {
            "bufferView" : 10,
            "componentType" : 5126,
            "count" : 560,
            "type" : "VEC2"
        },
        {
            "bufferView" : 11,
            "componentType" : 5123,
            "count" : 1896,
            "type" : "SCALAR"
        },
        {
            "bufferView" : 12,
            "componentType" : 5126,
            "count" : 448,
            "max" : [
                0.3570089638233185,
                0.3316924273967743,
                0.3570089638233185
            ],
            "min" : [
                -0.3570089638233185,
                -0.4003336429595947,
                -0.3570089638233185
            ],
            "type" : "VEC3"
        },
        {
            "bufferView" : 13,
            "componentType" : 5126,
            "count" : 448,
            "type" : "VEC3"
        },
        {
            "bufferView" : 14,
            "componentType" : 5126,
            "count" : 448,
            "type" : "VEC2"
        },
        {
            "bufferView" : 15,
            "componentType" : 5123,
            "count" : 1152,
            "type" : "SCALAR"
        },
        {
            "bufferView" : 16,
            "componentType" : 5126,
            "count" : 286,
            "max" : [
                1,
                1,
                1
            ],
            "min" : [
                -1,
                0.7787294387817383,
                -1
            ],
            "type" : "VEC3"
        },
        {
            "bufferView" : 17,
            "componentType" : 5126,
            "count" : 286,
            "type" : "VEC3"
        },
        {
            "bufferView" : 18,
            "componentType" : 5126,
            "count" : 286,
            "type" : "VEC2"
        },
        {
            "bufferView" : 19,
            "componentType" : 5123,
            "count" : 1152,
            "type" : "SCALAR"
        },
        {
            "bufferView" : 20,
            "componentType" : 5126,
            "count" : 451,
            "max" : [
                1.158470869064331,
                0.7787294387817383,
                1.158470869064331
            ],
            "min" : [
                -1.158470869064331,
                -1.4437041282653809,
                -1.158470869064331
            ],
            "type" : "VEC3"
        },
        {
            "bufferView" : 21,
            "componentType" : 5126,
            "count" : 451,
            "type" : "VEC3"
        },
        {
            "bufferView" : 22,
            "componentType" : 5126,
            "count" : 451,
            "type" : "VEC2"
        },
        {
            "bufferView" : 23,
            "componentType" : 5123,
            "count" : 1326,
            "type" : "SCALAR"
        },
        {
            "bufferView" : 24,
            "componentType" : 5126,
            "count" : 140,
            "max" : [
                1.1437348127365112,
                0.7787294387817383,
                1.158470869064331
            ],
            "min" : [
                -1.142932415008545,
                -1.4437041282653809,
                -1.042016625404358
            ],
            "type" : "VEC3"
        },
        {
            "bufferView" : 25,
            "componentType" : 5126,
            "count" : 140,
            "type" : "VEC3"
        },
        {
            "bufferView" : 26,
            "componentType" : 5126,
            "count" : 140,
            "type" : "VEC2"
        },
        {
            "bufferView" : 27,
            "componentType" : 5123,
            "count" : 474,
            "type" : "SCALAR"
        }
    ],
    "bufferViews" : [
        {
            "buffer" : 0,
            "byteLength" : 3468,
            "byteOffset" : 0
        },
        {
            "buffer" : 0,
            "byteLength" : 3468,
            "byteOffset" : 3468
        },
        {
            "buffer" : 0,
            "byteLength" : 2312,
            "byteOffset" : 6936
        },
        {
            "buffer" : 0,
            "byteLength" : 2280,
            "byteOffset" : 9248
        },
        {
            "buffer" : 0,
            "byteLength" : 10392,
            "byteOffset" : 11528
        },
        {
            "buffer" : 0,
            "byteLength" : 10392,
            "byteOffset" : 21920
        },
        {
            "buffer" : 0,
            "byteLength" : 6928,
            "byteOffset" : 32312
        },
        {
            "buffer" : 0,
            "byteLength" : 7464,
            "byteOffset" : 39240
        },
        {
            "buffer" : 0,
            "byteLength" : 6720,
            "byteOffset" : 46704
        },
        {
            "buffer" : 0,
            "byteLength" : 6720,
            "byteOffset" : 53424
        },
        {
            "buffer" : 0,
            "byteLength" : 4480,
            "byteOffset" : 60144
        },
        {
            "buffer" : 0,
            "byteLength" : 3792,
            "byteOffset" : 64624
        },
        {
            "buffer" : 0,
            "byteLength" : 5376,
            "byteOffset" : 68416
        },
        {
            "buffer" : 0,
            "byteLength" : 5376,
            "byteOffset" : 73792
        },
        {
            "buffer" : 0,
            "byteLength" : 3584,
            "byteOffset" : 79168
        },
        {
            "buffer" : 0,
            "byteLength" : 2304,
            "byteOffset" : 82752
        },
        {
            "buffer" : 0,
            "byteLength" : 3432,
            "byteOffset" : 85056
        },
        {
            "buffer" : 0,
            "byteLength" : 3432,
            "byteOffset" : 88488
        },
        {
            "buffer" : 0,
            "byteLength" : 2288,
            "byteOffset" : 91920
        },
        {
            "buffer" : 0,
            "byteLength" : 2304,
            "byteOffset" : 94208
        },
        {
            "buffer" : 0,
            "byteLength" : 5412,
            "byteOffset" : 96512
        },
        {
            "buffer" : 0,
            "byteLength" : 5412,
            "byteOffset" : 101924
        },
        {
            "buffer" : 0,
            "byteLength" : 3608,
            "byteOffset" : 107336
        },
        {
            "buffer" : 0,
            "byteLength" : 2652,
            "byteOffset" : 110944
        },
        {
            "buffer" : 0,
            "byteLength" : 1680,
            "byteOffset" : 113596
        },
        {
            "buffer" : 0,
            "byteLength" : 1680,
            "byteOffset" : 115276
        },
        {
            "buffer" : 0,
            "byteLength" : 1120,
            "byteOffset" : 116956
        },
        {
            "buffer" : 0,
            "byteLength" : 948,
            "byteOffset" : 118076
        }
    ],
    "samplers" : [
        {
            "magFilter" : 9729,
            "minFilter" : 9986
        }
    ],
    "buffers" : [
        {
            "byteLength" : 119024,
            "uri" : "Banco.bin"
        }
    ]
}
